<?xml version="1.0" standalone="no"?>
<svg preserveAspectRatio="none" viewBox="0 0 1440 320" xmlns="http://www.w3.org/2000/svg">
  <path d="M0,32L40,74.7C80,117,160,203,240,218.7C320,235,400,181,480,176C560,171,640,213,720,234.7C800,256,880,256,960,261.3C1040,267,1120,277,1200,272C1280,267,1360,245,1400,234.7L1440,224L1440,320L1400,320C1360,320,1280,320,1200,320C1120,320,1040,320,960,320C880,320,800,320,720,320C640,320,560,320,480,320C400,320,320,320,240,320C160,320,80,320,40,320L0,320Z" fill="#5AA7A7"
        fill-opacity="1"></path>
</svg>
