<?xml version="1.0" encoding="UTF-8"?>
<svg id="Layer_2" xmlns="http://www.w3.org/2000/svg" viewBox="0 0 175.7 176.35">
  <defs>
    <style>.cls-1{fill:#0e2ce2; stroke:#ffffff; stroke-width:2;}</style>
  </defs>
  <g id="Layer_1-2">
    <polygon class="cls-1"
             points="175.7 78.63 173.67 67.09 119.54 76.64 167.14 49.16 161.28 39.01 113.69 66.49 149.01 24.39 140.04 16.86 104.71 58.97 123.51 7.32 112.5 3.31 93.71 54.96 93.71 0 81.99 0 81.99 54.96 63.2 3.31 52.19 7.32 70.99 58.97 35.66 16.86 26.69 24.39 62.01 66.49 14.42 39.01 8.56 49.16 56.16 76.64 2.03 67.09 0 78.63 54.12 88.17 0 97.72 2.03 109.25 56.16 99.71 8.56 127.19 14.42 137.33 62.01 109.85 26.69 151.95 35.66 159.48 70.99 117.38 52.19 169.02 63.2 173.03 81.99 121.39 81.99 176.35 93.71 176.35 93.71 121.39 112.5 173.03 123.51 169.02 104.71 117.38 140.04 159.48 149.01 151.95 113.69 109.85 161.28 137.33 167.14 127.19 119.54 99.71 173.67 109.25 175.7 97.72 121.58 88.17 175.7 78.63"/>
  </g>
</svg>
